<svg xmlns="http://www.w3.org/2000/svg" style="display:none">
  <symbol id="icon-home" viewBox="0 0 24 24"><path d="M4 11.2 12 4l8 7.2V20h-5v-5H9v5H4v-8.8Z" fill="none" stroke="currentColor" stroke-width="1.8" stroke-linejoin="round"/></symbol>
  <symbol id="icon-profile" viewBox="0 0 24 24"><path d="M12 12a4 4 0 1 0 0-8 4 4 0 0 0 0 8Z" fill="none" stroke="currentColor" stroke-width="1.8"/><path d="M4.5 20c1.4-4 4-6 7.5-6s6.1 2 7.5 6" fill="none" stroke="currentColor" stroke-width="1.8" stroke-linecap="round"/></symbol>
  <symbol id="icon-page" viewBox="0 0 24 24"><path d="M6 3.8h8.5L18 7.3V20H6V3.8Z" fill="none" stroke="currentColor" stroke-width="1.8" stroke-linejoin="round"/><path d="M14.5 4v3.6H18M9 12h6M9 16h4" stroke="currentColor" stroke-width="1.8" stroke-linecap="round"/></symbol>
  <symbol id="icon-scan" viewBox="0 0 24 24"><path d="M5 8V5h3M16 5h3v3M19 16v3h-3M8 19H5v-3" fill="none" stroke="currentColor" stroke-width="1.8" stroke-linecap="round"/><path d="M8 12h8" stroke="currentColor" stroke-width="1.8" stroke-linecap="round"/></symbol>
  <symbol id="icon-cart" viewBox="0 0 24 24"><path d="M4 5h2l2 10h9l2-7H7" fill="none" stroke="currentColor" stroke-width="1.8" stroke-linecap="round" stroke-linejoin="round"/><circle cx="9" cy="19" r="1.3" fill="currentColor"/><circle cx="17" cy="19" r="1.3" fill="currentColor"/></symbol>
  <symbol id="icon-payment" viewBox="0 0 24 24"><path d="M4 7h16v10H4V7Z" fill="none" stroke="currentColor" stroke-width="1.8" stroke-linejoin="round"/><path d="M4 10h16M7 15h4" stroke="currentColor" stroke-width="1.8" stroke-linecap="round"/></symbol>
  <symbol id="icon-chat" viewBox="0 0 24 24"><path d="M5 5h14v10H9l-4 4V5Z" fill="none" stroke="currentColor" stroke-width="1.8" stroke-linejoin="round"/><path d="M8 9h8M8 12h5" stroke="currentColor" stroke-width="1.8" stroke-linecap="round"/></symbol>
  <symbol id="icon-confirm" viewBox="0 0 24 24"><path d="m5 12 4 4 10-10" fill="none" stroke="currentColor" stroke-width="2.1" stroke-linecap="round" stroke-linejoin="round"/></symbol>
  <symbol id="icon-close" viewBox="0 0 24 24"><path d="m6.5 6.5 11 11M17.5 6.5l-11 11" stroke="currentColor" stroke-width="2" stroke-linecap="round"/></symbol>
  <symbol id="icon-back" viewBox="0 0 24 24"><path d="M15 5 8 12l7 7" fill="none" stroke="currentColor" stroke-width="2" stroke-linecap="round" stroke-linejoin="round"/></symbol>
  <symbol id="icon-forward" viewBox="0 0 24 24"><path d="m9 5 7 7-7 7" fill="none" stroke="currentColor" stroke-width="2" stroke-linecap="round" stroke-linejoin="round"/></symbol>
  <symbol id="icon-hot" viewBox="0 0 24 24"><path d="M12 21c4 0 7-2.8 7-6.7 0-2.8-1.5-5.1-4.4-7.3.2 2.2-.6 3.5-2.1 4.4.1-3-1.2-5.5-4-7.4.2 3.2-3.5 5.5-3.5 10.2C5 18.2 8 21 12 21Z" fill="none" stroke="currentColor" stroke-width="1.8" stroke-linejoin="round"/></symbol>
  <symbol id="icon-like" viewBox="0 0 24 24"><path d="M7.5 21H5V10h2.5v11ZM10 20h6.4c1 0 1.8-.7 2-1.7l1.1-5.6c.2-1.2-.7-2.2-1.9-2.2H14l.7-3.3c.2-.9-.5-1.7-1.4-1.7h-.4L9.8 11H7.5" fill="none" stroke="currentColor" stroke-width="1.8" stroke-linejoin="round"/></symbol>
  <symbol id="icon-settings" viewBox="0 0 24 24"><path d="M12 15.2a3.2 3.2 0 1 0 0-6.4 3.2 3.2 0 0 0 0 6.4Z" fill="none" stroke="currentColor" stroke-width="1.8"/><path d="m19 12 .9-2.2-2.1-1.2-.4-1-2.3.7-.9-.4L13.5 5h-3l-.7 2.9-.9.4-2.3-.7-.4 1-2.1 1.2L5 12l-.9 2.2 2.1 1.2.4 1 2.3-.7.9.4.7 2.9h3l.7-2.9.9-.4 2.3.7.4-1 2.1-1.2L19 12Z" fill="none" stroke="currentColor" stroke-width="1.5" stroke-linejoin="round"/></symbol>
  <symbol id="icon-help" viewBox="0 0 24 24"><circle cx="12" cy="12" r="8" fill="none" stroke="currentColor" stroke-width="1.8"/><path d="M9.8 9.5A2.3 2.3 0 0 1 12.2 8c1.4 0 2.4.9 2.4 2.1 0 1.7-1.9 2-2.2 3.3M12 17h.01" stroke="currentColor" stroke-width="1.8" stroke-linecap="round"/></symbol>
  <symbol id="icon-info" viewBox="0 0 24 24"><circle cx="12" cy="12" r="8" fill="none" stroke="currentColor" stroke-width="1.8"/><path d="M12 11v5M12 8h.01" stroke="currentColor" stroke-width="1.8" stroke-linecap="round"/></symbol>
  <symbol id="icon-wallet" viewBox="0 0 24 24"><path d="M5 7h13a2 2 0 0 1 2 2v9H5a2 2 0 0 1-2-2V7.5A2.5 2.5 0 0 1 5.5 5H17" fill="none" stroke="currentColor" stroke-width="1.8" stroke-linejoin="round"/><path d="M16 13h4" stroke="currentColor" stroke-width="1.8" stroke-linecap="round"/></symbol>
  <symbol id="icon-list" viewBox="0 0 24 24"><path d="M8 7h11M8 12h11M8 17h11" stroke="currentColor" stroke-width="1.8" stroke-linecap="round"/><circle cx="5" cy="7" r="1" fill="currentColor"/><circle cx="5" cy="12" r="1" fill="currentColor"/><circle cx="5" cy="17" r="1" fill="currentColor"/></symbol>
  <symbol id="icon-favorite" viewBox="0 0 24 24"><path d="m12 4 2.4 4.9 5.4.8-3.9 3.8.9 5.4L12 16.3 7.2 19l.9-5.4-3.9-3.8 5.4-.8L12 4Z" fill="none" stroke="currentColor" stroke-width="1.8" stroke-linejoin="round"/></symbol>
  <symbol id="icon-search" viewBox="0 0 24 24"><circle cx="10.5" cy="10.5" r="5.5" fill="none" stroke="currentColor" stroke-width="1.8"/><path d="m15 15 4 4" stroke="currentColor" stroke-width="1.8" stroke-linecap="round"/></symbol>
</svg>
