<svg xmlns="http://www.w3.org/2000/svg" width="780" height="620" viewBox="0 0 780 620" fill="none">
  <rect width="780" height="620" fill="none"/>
  <path d="M128 182C214 48 407 18 548 98C674 169 718 320 639 427C547 553 334 582 191 492C79 421 58 292 128 182Z" fill="#F0DCC3"/>
  <path d="M211 176C293 85 449 80 549 156C643 228 647 355 559 429C458 513 286 508 203 419C135 346 144 250 211 176Z" fill="#F8E9D8"/>
  <path d="M117 358C247 300 382 302 527 370C582 396 649 370 676 314C710 243 658 166 581 163C411 155 252 199 105 296C69 319 76 377 117 358Z" fill="#2E6BFF" fill-opacity="0.16"/>
  <path d="M204 238C296 210 398 216 493 257C531 273 576 252 588 212C604 159 558 109 506 123C397 153 291 166 189 164C139 163 112 222 151 253C166 264 185 244 204 238Z" fill="#2E8B67" fill-opacity="0.22"/>
  <path d="M167 452C289 508 445 501 552 434" stroke="#17201B" stroke-opacity="0.14" stroke-width="3" stroke-linecap="round"/>
  <path d="M199 128C308 62 478 76 589 169" stroke="#17201B" stroke-opacity="0.12" stroke-width="3" stroke-linecap="round"/>
</svg>
